# Blender v2.78 (sub 0) OBJ File: 'boneco.blend'
# www.blender.org
o Cube
v -0.302524 0.775044 -0.258395
v 0.302524 0.775044 -0.258395
v 0.302524 0.775044 0.258395
v -0.302524 0.775044 0.258395
v -0.302524 1.630942 -0.258395
v 0.302524 1.630942 -0.258394
v 0.302524 1.630942 0.258395
v -0.302524 1.630942 0.258395
v -0.181514 0.775044 -0.258395
v -0.060505 0.775044 -0.258395
v 0.060505 0.775044 -0.258395
v 0.181514 0.775044 -0.258395
v 0.181514 0.775044 0.258395
v 0.060505 0.775044 0.258395
v -0.060505 0.775044 0.258395
v -0.181515 0.775044 0.258395
v -0.181514 1.630942 -0.258395
v -0.060505 1.630942 -0.258395
v 0.060505 1.630942 -0.258395
v 0.181515 1.630942 -0.258395
v 0.181514 1.630942 0.258395
v 0.060505 1.630942 0.258395
v -0.060505 1.630942 0.258395
v -0.181514 1.630942 0.258395
v -0.302524 0.062704 -0.258395
v -0.302524 0.062704 0.258395
v -0.181515 0.062704 0.258395
v -0.181514 0.062704 -0.258395
v -0.060505 0.062704 -0.258395
v -0.060505 0.062704 0.258395
v 0.181514 0.066191 -0.258395
v 0.302524 0.066191 -0.258395
v 0.302524 0.066191 0.258395
v 0.060505 0.066191 -0.258395
v 0.181514 0.066191 0.258395
v 0.060505 0.066191 0.258395
v -0.302524 0.775044 -0.086132
v -0.302524 0.775044 0.086132
v 0.302524 0.775044 -0.086132
v 0.302524 0.775044 0.086132
v -0.302524 1.573538 -0.086132
v -0.302524 1.573538 0.086132
v 0.302524 1.580281 -0.086131
v 0.302524 1.580281 0.086132
v -0.060505 0.775044 -0.086132
v -0.060505 0.775044 0.086132
v 0.060505 0.775044 -0.086132
v 0.060505 0.775044 0.086132
v -0.302524 0.062704 -0.086132
v -0.302524 0.062704 0.086132
v -0.181514 0.062704 -0.086132
v -0.181514 0.062704 0.086132
v -0.060505 0.062704 -0.086132
v -0.060505 0.062704 0.086132
v 0.302524 0.066191 -0.086132
v 0.302524 0.066191 0.086132
v 0.060505 0.066191 -0.086132
v 0.060505 0.066191 0.086132
v 0.181514 0.066191 -0.086132
v 0.181514 0.066191 0.086132
v -0.452524 0.775044 -0.086132
v -0.452524 0.775044 0.086132
v -0.452524 1.573538 -0.086132
v -0.452524 1.573538 0.086132
v 0.452524 0.775044 -0.086132
v 0.452524 0.775044 0.086132
v 0.452524 1.580281 -0.086131
v 0.452524 1.580281 0.086132
v 0.181515 2.309857 -0.258395
v 0.302524 2.309857 -0.258394
v -0.302524 2.309857 0.086132
v -0.302524 2.309857 0.258395
v 0.302524 2.309857 0.086132
v 0.302524 2.309857 0.258395
v -0.181514 2.309857 0.258395
v -0.302524 2.309857 -0.258395
v -0.181514 2.309857 -0.258395
v -0.060505 2.309857 -0.258395
v 0.060505 2.309857 -0.258395
v 0.181514 2.309857 0.258395
v 0.060505 2.309857 0.258395
v -0.060505 2.309857 0.258395
v -0.181514 2.309857 -0.086132
v -0.060505 2.309857 -0.086132
v 0.060505 2.309857 -0.086132
v 0.181515 2.309857 -0.086131
v -0.302524 2.309857 -0.086132
v 0.302524 2.309857 -0.086131
v -0.181514 2.309857 0.086132
v -0.060505 2.309857 0.086132
v 0.060505 2.309857 0.086132
v 0.181514 2.309857 0.086132
v -0.447209 1.630942 0.086132
v -0.447209 1.630942 0.258395
v -0.447209 1.630942 -0.258395
v -0.447209 1.630942 -0.086132
v -0.447209 2.309857 0.258395
v -0.447209 2.309857 0.086132
v -0.447209 2.309857 -0.086132
v -0.447209 2.309857 -0.258395
v 0.452227 1.630942 0.086132
v 0.452227 1.630942 0.258395
v 0.452227 1.630942 -0.258395
v 0.452227 1.630942 -0.086131
v 0.452227 2.309857 0.258395
v 0.452227 2.309857 0.086132
v 0.452227 2.309857 -0.086131
v 0.452227 2.309857 -0.258395
vt 0.1895 0.1920
vt 0.2347 0.0009
vt 0.2347 0.1920
vt 0.2347 0.4228
vt 0.1895 0.6058
vt 0.1895 0.4228
vt 0.4368 0.4228
vt 0.3917 0.1920
vt 0.4368 0.1920
vt 0.8002 0.4364
vt 0.8645 0.6535
vt 0.8002 0.6535
vt 0.0992 0.4228
vt 0.0540 0.1920
vt 0.0992 0.1920
vt 0.8002 0.4073
vt 0.8645 0.1920
vt 0.8645 0.4228
vt 0.2799 0.4228
vt 0.2799 0.1920
vt 0.1444 0.1920
vt 0.1444 0.4228
vt 0.6175 0.4228
vt 0.5724 0.1920
vt 0.6175 0.1920
vt 0.5724 0.4228
vt 0.5272 0.1920
vt 0.5272 0.4228
vt 0.4820 0.1920
vt 0.4820 0.4228
vt 0.0000 0.8917
vt 0.0643 0.9488
vt 0.0000 0.9488
vt 0.2347 0.6058
vt 0.0540 0.6058
vt 0.0000 0.4228
vt 0.0540 0.4228
vt 0.6071 0.8029
vt 0.5513 0.8686
vt 0.5513 0.8029
vt 0.6175 0.0000
vt 0.6715 0.1920
vt 0.7359 0.0000
vt 0.7359 0.1920
vt 1.0000 0.1314
vt 0.9548 0.1971
vt 0.9548 0.1314
vt 0.8002 0.8446
vt 0.9097 0.1314
vt 0.8645 0.1971
vt 0.8645 0.1314
vt 0.9548 0.1971
vt 0.9097 0.1971
vt 0.1929 0.6058
vt 0.3809 0.6715
vt 0.1929 0.6715
vt 0.1444 0.0000
vt 0.5724 0.0000
vt 0.0992 0.0000
vt 0.6583 0.7372
vt 0.6132 0.8029
vt 0.6132 0.7372
vt 0.5680 0.7372
vt 0.5680 0.8029
vt 0.4820 0.0009
vt 0.4368 0.0009
vt 0.5680 0.8029
vt 0.3809 0.7372
vt 0.5680 0.7372
vt 0.2799 0.0009
vt 0.5680 0.6715
vt 0.3809 0.6058
vt 0.5680 0.6058
vt 0.3809 0.6715
vt 0.6132 0.6058
vt 0.5680 0.6715
vt 0.5680 0.6058
vt 0.6132 0.6715
vt 0.6583 0.6058
vt 0.1929 0.7372
vt 0.3809 0.8029
vt 0.1929 0.8029
vt 0.3809 0.7372
vt 0.9097 0.0000
vt 0.9548 0.0657
vt 0.9097 0.0657
vt 0.9548 0.1314
vt 0.8645 0.0000
vt 0.8645 0.0657
vt 0.7359 0.6535
vt 0.6715 0.8446
vt 0.6715 0.6535
vt 0.7359 0.8446
vt 0.9548 0.0000
vt 1.0000 0.0657
vt 0.9548 0.0657
vt 0.8002 0.1920
vt 0.8645 0.0000
vt 0.8002 0.0000
vt 0.4368 0.6058
vt 0.3917 0.6058
vt 0.3917 0.4228
vt 0.1286 0.8917
vt 0.1929 0.9488
vt 0.1286 0.9488
vt 0.4820 0.6058
vt 0.6715 0.6058
vt 0.6175 0.6058
vt 0.5272 0.6058
vt 0.6612 0.9343
vt 0.6071 0.8686
vt 0.6612 0.8686
vt 0.5724 0.6058
vt 0.7359 0.4073
vt 0.6715 0.4228
vt 0.8645 0.8465
vt 0.9205 0.9122
vt 0.8645 0.9122
vt 0.7359 0.4364
vt 0.9205 0.8465
vt 0.8645 0.6294
vt 0.9205 0.6294
vt 0.0992 0.6058
vt 0.1444 0.6058
vt 0.9288 0.6294
vt 0.8645 0.4142
vt 0.9288 0.4142
vt 0.9288 0.1971
vt 0.9848 0.4124
vt 0.9288 0.4124
vt 0.7275 0.8446
vt 0.6715 0.9103
vt 0.6715 0.8446
vt 0.9848 0.6276
vt 0.9288 0.4124
vt 0.9848 0.4124
vt 0.8645 0.1971
vt 0.9288 0.4142
vt 0.8645 0.4142
vt 0.7835 0.8446
vt 0.7275 0.9103
vt 0.7275 0.8446
vt 0.9765 0.8465
vt 0.9205 0.6294
vt 0.9765 0.6294
vt 0.8395 0.9103
vt 0.7835 0.8446
vt 0.8395 0.8446
vt 0.1286 0.8456
vt 0.1929 0.8917
vt 0.1286 0.6610
vt 0.1929 0.7072
vt 0.1286 0.7072
vt 0.1929 0.7533
vt 0.1286 0.7533
vt 0.1286 0.7995
vt 0.1929 0.8456
vt 0.0643 0.7995
vt 0.0000 0.8456
vt 0.0000 0.7995
vt 0.0643 0.8456
vt 0.0643 0.7533
vt 0.0000 0.7533
vt 0.0643 0.7072
vt 0.0000 0.7072
vt 0.0643 0.6610
vt 0.0000 0.6610
vt 0.0643 0.8917
vt 0.3721 1.0000
vt 0.1929 0.9343
vt 0.3721 0.9343
vt 0.1929 0.8686
vt 0.3721 0.8686
vt 0.1929 0.8029
vt 0.3721 0.8029
vt 0.0000 0.6058
vt 0.0643 0.6058
vt 0.6612 0.8029
vt 0.6071 0.8029
vt 0.1929 0.6610
vt 0.1286 0.6058
vt 0.1929 0.6058
vt 0.6612 1.0000
vt 0.6071 0.9343
vt 0.3721 0.8029
vt 0.5513 0.9343
vt 0.3721 0.8686
vt 0.5513 1.0000
vt 0.3721 0.9343
vt 0.6071 1.0000
vt 0.6071 0.9343
vt 0.3358 0.4228
vt 0.3358 0.6058
vt 0.2799 0.6058
vt 0.6071 0.8686
vt 0.1895 0.0009
vt 0.8645 0.4228
vt 0.0000 0.6058
vt 0.6715 0.0000
vt 1.0000 0.1971
vt 0.8645 0.8446
vt 0.3809 0.6058
vt 0.5272 0.0000
vt 0.0540 0.0000
vt 0.6583 0.8029
vt 0.3917 0.0009
vt 0.3809 0.8029
vt 0.6583 0.6715
vt 0.9548 0.0000
vt 1.0000 0.0000
vt 0.6715 0.4228
vt 0.9205 0.8465
vt 0.6715 0.4228
vt 0.8645 0.8465
vt 0.8645 0.6294
vt 0.9848 0.1971
vt 0.7275 0.9103
vt 0.9288 0.6276
vt 0.9288 0.1971
vt 0.7835 0.9103
vt 0.9205 0.8465
vt 0.7835 0.9103
vt 0.1929 0.7995
vt 0.1929 1.0000
vt 0.6071 1.0000
vt 0.3721 1.0000
vt 0.3358 0.6058
vt 0.3358 0.4228
vn -0.0000 0.0000 1.0000
vn 0.0000 0.0000 -1.0000
vn 1.0000 0.0000 0.0000
vn -1.0000 0.0000 -0.0000
vn 0.0000 1.0000 0.0000
vn 0.0000 -1.0000 0.0000
vn -0.3688 -0.9295 0.0000
vn -0.3523 -0.8879 0.2959
vn 0.3088 -0.9125 -0.2684
vn 0.3206 -0.9472 0.0000
vn 0.3088 -0.9125 0.2684
vn -0.3523 -0.8879 -0.2959
s off
f 14/1/1 35/2/1 13/3/1
f 21/4/1 81/5/1 22/6/1
f 20/7/2 2/8/2 12/9/2
f 44/10/3 3/11/3 40/12/3
f 24/13/1 4/14/1 16/15/1
f 42/16/4 4/17/4 8/18/4
f 7/19/1 13/3/1 3/20/1
f 21/4/1 14/1/1 13/3/1
f 22/6/1 15/21/1 14/1/1
f 23/22/1 16/15/1 15/21/1
f 5/23/2 9/24/2 1/25/2
f 17/26/2 10/27/2 9/24/2
f 18/28/2 11/29/2 10/27/2
f 19/30/2 12/9/2 11/29/2
f 70/31/5 107/32/5 108/33/5
f 7/19/1 80/34/1 21/4/1
f 72/35/1 94/36/1 8/37/1
f 7/38/6 101/39/6 102/40/6
f 9/24/2 25/41/2 1/25/2
f 1/42/4 49/43/4 37/44/4
f 48/45/6 15/46/6 46/47/6
f 3/11/3 56/48/3 40/12/3
f 52/49/6 26/50/6 50/51/6
f 52/49/6 30/52/6 27/53/6
f 15/54/3 54/55/3 46/56/3
f 16/15/1 30/57/1 15/21/1
f 10/27/2 28/58/2 9/24/2
f 4/14/1 27/59/1 16/15/1
f 56/60/6 35/61/6 60/62/6
f 58/63/6 35/61/6 36/64/6
f 12/9/2 34/65/2 11/29/2
f 2/8/2 31/66/2 12/9/2
f 11/67/4 57/68/4 47/69/4
f 13/3/1 33/70/1 3/20/1
f 48/71/4 36/72/4 14/73/4
f 47/69/4 58/74/4 48/71/4
f 31/75/6 57/76/6 34/77/6
f 59/78/6 58/63/6 57/76/6
f 32/79/6 59/78/6 31/75/6
f 59/78/6 56/60/6 60/62/6
f 45/80/3 29/81/3 10/82/3
f 46/56/3 53/83/3 45/80/3
f 28/84/6 53/85/6 51/86/6
f 51/86/6 54/87/6 52/49/6
f 25/88/6 51/86/6 49/89/6
f 51/86/6 50/51/6 49/89/6
f 39/90/3 32/91/3 2/92/3
f 40/12/3 55/93/3 39/90/3
f 10/94/6 47/95/6 45/96/6
f 47/95/6 46/47/6 45/96/6
f 38/97/4 26/98/4 4/17/4
f 37/44/4 50/99/4 38/97/4
f 19/30/2 69/100/2 20/7/2
f 20/7/2 70/101/2 6/102/2
f 73/103/5 105/104/5 106/105/5
f 18/28/2 79/106/2 19/30/2
f 5/23/2 100/107/2 76/108/2
f 17/26/2 78/109/2 18/28/2
f 42/110/7 96/111/7 41/112/7
f 5/23/2 77/113/2 17/26/2
f 1/42/4 41/114/4 5/115/4
f 38/116/6 61/117/6 37/118/6
f 2/92/3 43/119/3 39/90/3
f 40/120/1 68/121/1 44/122/1
f 23/22/1 75/123/1 24/13/1
f 22/6/1 82/124/1 23/22/1
f 61/125/4 64/126/4 63/127/4
f 42/128/1 62/129/1 38/130/1
f 42/131/5 63/132/5 64/133/5
f 37/134/2 63/135/2 41/136/2
f 67/137/3 66/138/3 65/139/3
f 43/140/5 68/141/5 67/142/5
f 43/143/2 65/144/2 39/145/2
f 39/146/6 66/147/6 40/148/6
f 92/149/5 74/150/5 73/103/5
f 71/151/5 75/152/5 89/153/5
f 89/153/5 82/154/5 90/155/5
f 82/154/5 91/156/5 90/155/5
f 91/156/5 80/157/5 92/149/5
f 85/158/5 69/159/5 79/160/5
f 91/156/5 86/161/5 85/158/5
f 84/162/5 79/160/5 78/163/5
f 90/155/5 85/158/5 84/162/5
f 83/164/5 78/163/5 77/165/5
f 83/164/5 90/155/5 84/162/5
f 87/166/5 77/165/5 76/167/5
f 71/151/5 83/164/5 87/166/5
f 69/159/5 88/168/5 70/31/5
f 86/161/5 73/103/5 88/168/5
f 24/13/1 72/35/1 8/37/1
f 94/169/4 98/170/4 93/171/4
f 93/171/4 99/172/4 96/173/4
f 96/173/4 100/174/4 95/175/4
f 87/166/5 100/176/5 99/177/5
f 5/178/6 96/111/6 95/179/6
f 72/180/5 98/181/5 97/182/5
f 8/183/8 93/184/8 42/110/8
f 71/151/5 99/177/5 98/181/5
f 101/39/3 105/185/3 102/40/3
f 104/186/3 106/187/3 101/39/3
f 103/188/3 107/189/3 104/186/3
f 6/190/9 104/186/9 43/191/9
f 70/101/2 103/192/2 6/102/2
f 88/168/5 106/105/5 107/32/5
f 7/19/1 105/193/1 74/194/1
f 43/191/10 101/39/10 44/195/10
f 14/1/1 36/196/1 35/2/1
f 21/4/1 80/34/1 81/5/1
f 20/7/2 6/102/2 2/8/2
f 44/10/3 7/197/3 3/11/3
f 24/13/1 8/37/1 4/14/1
f 42/16/4 38/97/4 4/17/4
f 7/19/1 21/4/1 13/3/1
f 21/4/1 22/6/1 14/1/1
f 22/6/1 23/22/1 15/21/1
f 23/22/1 24/13/1 16/15/1
f 5/23/2 17/26/2 9/24/2
f 17/26/2 18/28/2 10/27/2
f 18/28/2 19/30/2 11/29/2
f 19/30/2 20/7/2 12/9/2
f 70/31/5 88/168/5 107/32/5
f 7/19/1 74/194/1 80/34/1
f 72/35/1 97/198/1 94/36/1
f 7/38/11 44/195/11 101/39/11
f 9/24/2 28/58/2 25/41/2
f 1/42/4 25/199/4 49/43/4
f 48/45/6 14/200/6 15/46/6
f 3/11/3 33/201/3 56/48/3
f 52/49/6 27/53/6 26/50/6
f 52/49/6 54/87/6 30/52/6
f 15/54/3 30/202/3 54/55/3
f 16/15/1 27/59/1 30/57/1
f 10/27/2 29/203/2 28/58/2
f 4/14/1 26/204/1 27/59/1
f 56/60/6 33/205/6 35/61/6
f 58/63/6 60/62/6 35/61/6
f 12/9/2 31/66/2 34/65/2
f 2/8/2 32/206/2 31/66/2
f 11/67/4 34/207/4 57/68/4
f 13/3/1 35/2/1 33/70/1
f 48/71/4 58/74/4 36/72/4
f 47/69/4 57/68/4 58/74/4
f 31/75/6 59/78/6 57/76/6
f 59/78/6 60/62/6 58/63/6
f 32/79/6 55/208/6 59/78/6
f 59/78/6 55/208/6 56/60/6
f 45/80/3 53/83/3 29/81/3
f 46/56/3 54/55/3 53/83/3
f 28/84/6 29/209/6 53/85/6
f 51/86/6 53/85/6 54/87/6
f 25/88/6 28/84/6 51/86/6
f 51/86/6 52/49/6 50/51/6
f 39/90/3 55/93/3 32/91/3
f 40/12/3 56/48/3 55/93/3
f 10/94/6 11/210/6 47/95/6
f 47/95/6 48/45/6 46/47/6
f 38/97/4 50/99/4 26/98/4
f 37/44/4 49/43/4 50/99/4
f 19/30/2 79/106/2 69/100/2
f 20/7/2 69/100/2 70/101/2
f 73/103/5 74/150/5 105/104/5
f 18/28/2 78/109/2 79/106/2
f 5/23/2 95/211/2 100/107/2
f 17/26/2 77/113/2 78/109/2
f 42/110/7 93/184/7 96/111/7
f 5/23/2 76/108/2 77/113/2
f 1/42/4 37/44/4 41/114/4
f 38/116/6 62/212/6 61/117/6
f 2/92/3 6/213/3 43/119/3
f 40/120/1 66/214/1 68/121/1
f 23/22/1 82/124/1 75/123/1
f 22/6/1 81/5/1 82/124/1
f 61/125/4 62/215/4 64/126/4
f 42/128/1 64/216/1 62/129/1
f 42/131/5 41/217/5 63/132/5
f 37/134/2 61/218/2 63/135/2
f 67/137/3 68/219/3 66/138/3
f 43/140/5 44/220/5 68/141/5
f 43/143/2 67/221/2 65/144/2
f 39/146/6 65/222/6 66/147/6
f 92/149/5 80/157/5 74/150/5
f 71/151/5 72/180/5 75/152/5
f 89/153/5 75/152/5 82/154/5
f 82/154/5 81/223/5 91/156/5
f 91/156/5 81/223/5 80/157/5
f 85/158/5 86/161/5 69/159/5
f 91/156/5 92/149/5 86/161/5
f 84/162/5 85/158/5 79/160/5
f 90/155/5 91/156/5 85/158/5
f 83/164/5 84/162/5 78/163/5
f 83/164/5 89/153/5 90/155/5
f 87/166/5 83/164/5 77/165/5
f 71/151/5 89/153/5 83/164/5
f 69/159/5 86/161/5 88/168/5
f 86/161/5 92/149/5 73/103/5
f 24/13/1 75/123/1 72/35/1
f 94/169/4 97/224/4 98/170/4
f 93/171/4 98/170/4 99/172/4
f 96/173/4 99/172/4 100/174/4
f 87/166/5 76/167/5 100/176/5
f 5/178/12 41/112/12 96/111/12
f 72/180/5 71/151/5 98/181/5
f 8/183/6 94/225/6 93/184/6
f 71/151/5 87/166/5 99/177/5
f 101/39/3 106/187/3 105/185/3
f 104/186/3 107/189/3 106/187/3
f 103/188/3 108/226/3 107/189/3
f 6/190/6 103/188/6 104/186/6
f 70/101/2 108/227/2 103/192/2
f 88/168/5 73/103/5 106/105/5
f 7/19/1 102/228/1 105/193/1
f 43/191/10 104/186/10 101/39/10
