# Blender v2.78 (sub 0) OBJ File: 'rua.blend'
# www.blender.org
o Cube
v 1.645523 0.091576 24.681189
v 1.645523 0.091576 -24.681189
v -1.645524 0.091576 -24.681183
v -1.645523 0.091576 24.681198
v 1.645524 -0.091576 24.681177
v 1.645522 -0.091576 -24.681204
v -1.645524 -0.091576 -24.681179
v -1.645523 -0.091576 24.681189
v -1.316418 0.091576 24.681198
v -1.316419 0.091576 -24.681183
v -1.316419 -0.091576 24.681189
v -1.316419 -0.091576 -24.681183
v 1.349329 0.091576 24.681189
v 1.349329 0.091576 -24.681189
v 1.349330 -0.091576 24.681179
v 1.349328 -0.091576 -24.681202
v 1.645523 0.191576 24.681189
v 1.645523 0.191576 -24.681189
v 1.349329 0.191576 24.681189
v 1.349329 0.191576 -24.681189
v -1.316418 0.191576 24.681198
v -1.645523 0.191576 24.681198
v -1.316419 0.191576 -24.681183
v -1.645524 0.191576 -24.681183
v 12.261478 0.091576 24.681189
v 12.261478 0.091576 -24.681189
v 12.261478 -0.091576 24.681177
v 12.261477 -0.091576 -24.681204
v -10.801050 0.091576 -24.681183
v -10.801049 0.091576 24.681198
v -10.801051 -0.091576 -24.681179
v -10.801050 -0.091576 24.681189
vt 0.9077 0.0608
vt 0.9417 0.9799
vt 0.9077 0.9799
vt 0.7057 0.1701
vt 0.6146 0.1637
vt 0.7057 0.1637
vt 0.4742 0.1712
vt 0.5419 0.0174
vt 0.5419 0.1712
vt 0.7925 0.0381
vt 0.8609 0.0317
vt 0.8609 0.0381
vt 0.1669 0.1401
vt 0.2172 0.0089
vt 0.2172 0.1401
vt 0.7324 0.0095
vt 0.6640 0.0031
vt 0.7324 0.0031
vt 0.5462 0.1359
vt 0.6146 0.0840
vt 0.6146 0.1359
vt 0.7228 0.1229
vt 0.7570 0.0969
vt 0.7570 0.1229
vt 0.7057 0.1118
vt 0.6146 0.1118
vt 0.1405 0.1648
vt 0.0171 0.9932
vt 0.0171 0.1648
vt 0.8458 0.9352
vt 0.8120 0.1115
vt 0.8458 0.1115
vt 0.6146 0.1060
vt 0.7057 0.1060
vt 0.8049 0.0226
vt 0.8733 0.0168
vt 0.8733 0.0226
vt 0.6875 0.0424
vt 0.7560 0.0367
vt 0.7560 0.0424
vt 0.7511 0.9811
vt 0.7374 0.2186
vt 0.7511 0.2186
vt 0.7722 0.0747
vt 0.7974 0.9890
vt 0.7722 0.9890
vt 0.7905 0.0127
vt 0.7531 0.0069
vt 0.7905 0.0069
vt 0.6601 0.0524
vt 0.6539 0.0874
vt 0.6539 0.0524
vt 0.8791 0.2199
vt 0.8943 0.9772
vt 0.8791 0.9772
vt 0.9774 0.9733
vt 0.9468 0.2585
vt 0.9774 0.2585
vt 0.6539 0.0524
vt 0.6471 0.0874
vt 0.6471 0.0524
vt 0.7185 0.0257
vt 0.6812 0.0193
vt 0.7185 0.0193
vt 0.1505 0.0111
vt 0.0955 0.0796
vt 0.0955 0.0111
vt 0.2965 0.0006
vt 0.2372 0.1799
vt 0.2372 0.0006
vt 0.4591 0.0133
vt 0.4144 0.1485
vt 0.4144 0.0133
vt 0.4308 0.9947
vt 0.7142 0.2041
vt 0.7142 0.9947
vt 0.0285 0.0756
vt 0.0786 0.0130
vt 0.0786 0.0756
vt 0.3900 0.0097
vt 0.3073 0.1716
vt 0.3073 0.0097
vt 0.6526 0.0057
vt 0.5500 0.0498
vt 0.5484 0.0099
vt 0.4285 0.2051
vt 0.1569 0.9935
vt 0.1569 0.2051
vt 0.9417 0.0608
vt 0.6146 0.1701
vt 0.4742 0.0174
vt 0.7925 0.0317
vt 0.1669 0.0089
vt 0.6640 0.0095
vt 0.5462 0.0840
vt 0.7228 0.0969
vt 0.1405 0.9932
vt 0.8120 0.9352
vt 0.8049 0.0168
vt 0.6875 0.0367
vt 0.7374 0.9811
vt 0.7974 0.0747
vt 0.7531 0.0127
vt 0.6601 0.0874
vt 0.8943 0.2199
vt 0.9468 0.9733
vt 0.6539 0.0874
vt 0.6812 0.0257
vt 0.1505 0.0796
vt 0.2965 0.1799
vt 0.4591 0.1485
vt 0.4308 0.2041
vt 0.0285 0.0130
vt 0.3900 0.1716
vt 0.6542 0.0457
vt 0.4285 0.9935
vn 1.0000 0.0000 -0.0000
vn 0.0000 -1.0000 0.0000
vn 0.0000 0.0000 -1.0000
vn 0.0000 -0.0001 1.0000
vn -0.0000 0.0001 -1.0000
vn 0.0000 1.0000 0.0000
vn -1.0000 0.0000 0.0000
vn 0.0000 0.0000 1.0000
s off
f 10/1/1 21/2/1 9/3/1
f 8/4/2 12/5/2 11/6/2
f 6/7/2 27/8/2 5/9/2
f 12/10/3 3/11/3 10/12/3
f 7/13/3 29/14/3 3/15/3
f 11/16/4 4/17/4 8/18/4
f 13/19/4 11/20/4 15/21/4
f 16/22/5 10/23/5 14/24/5
f 15/25/2 12/5/2 16/26/2
f 13/27/6 10/28/6 9/29/6
f 13/30/7 20/31/7 14/32/7
f 15/25/2 6/33/2 5/34/2
f 6/35/5 14/36/5 2/37/5
f 1/38/4 15/39/4 5/40/4
f 18/41/6 19/42/6 17/43/6
f 2/44/1 17/45/1 1/46/1
f 1/47/8 19/48/8 13/49/8
f 14/50/3 18/51/3 2/52/3
f 23/53/6 22/54/6 21/55/6
f 4/56/7 24/57/7 3/58/7
f 3/59/3 23/60/3 10/61/3
f 9/62/8 22/63/8 4/64/8
f 27/65/1 26/66/1 25/67/1
f 2/68/5 28/69/5 6/70/5
f 5/71/4 25/72/4 1/73/4
f 1/74/6 26/75/6 2/76/6
f 31/77/7 30/78/7 29/79/7
f 8/80/2 31/81/2 7/82/2
f 8/83/4 30/84/4 32/85/4
f 3/86/6 30/87/6 4/88/6
f 10/1/1 23/89/1 21/2/1
f 8/4/2 7/90/2 12/5/2
f 6/7/2 28/91/2 27/8/2
f 12/10/3 7/92/3 3/11/3
f 7/13/3 31/93/3 29/14/3
f 11/16/4 9/94/4 4/17/4
f 13/19/4 9/95/4 11/20/4
f 16/22/3 12/96/3 10/23/3
f 15/25/2 11/6/2 12/5/2
f 13/27/6 14/97/6 10/28/6
f 13/30/7 19/98/7 20/31/7
f 15/25/2 16/26/2 6/33/2
f 6/35/5 16/99/5 14/36/5
f 1/38/4 13/100/4 15/39/4
f 18/41/6 20/101/6 19/42/6
f 2/44/1 18/102/1 17/45/1
f 1/47/8 17/103/8 19/48/8
f 14/50/3 20/104/3 18/51/3
f 23/53/6 24/105/6 22/54/6
f 4/56/7 22/106/7 24/57/7
f 3/59/3 24/107/3 23/60/3
f 9/62/8 21/108/8 22/63/8
f 27/65/1 28/109/1 26/66/1
f 2/68/5 26/110/5 28/69/5
f 5/71/4 27/111/4 25/72/4
f 1/74/6 25/112/6 26/75/6
f 31/77/7 32/113/7 30/78/7
f 8/80/2 32/114/2 31/81/2
f 8/83/4 4/115/4 30/84/4
f 3/86/6 29/116/6 30/87/6
